<svg width="276" height="129" viewBox="0 0 276 129" fill="none" xmlns="http://www.w3.org/2000/svg">
<g filter="url(#filter0_d_2451_5690)">
<path d="M69.002 116.407C69.3205 116.374 69.6077 116.339 69.8605 116.304C69.617 116.356 69.3284 116.39 69.002 116.407C65.5933 116.753 58.6099 116.812 52.1289 114.765C51.6653 116.955 50.0838 121.12 47.4658 120.26L39.1361 117.526C38.2214 117.189 36.6201 115.822 37.5322 113.047C38.6723 109.579 37.2486 108.562 37.0162 108.266C36.7839 107.971 31.7859 104.793 29.7969 102.822C29.3114 102.517 27.5448 102.588 24.3616 105.32C23.6486 105.818 21.7713 106.248 19.9658 103.987C18.1603 101.725 15.7397 98.6836 14.7551 97.4454C14.3778 96.6994 14.0832 94.7436 15.9235 92.8884C17.7638 91.0332 17.6854 88.1968 17.4161 87.0105L14.353 80.9546C14.1863 80.5705 13.1931 79.8711 10.5537 80.1465C7.91431 80.4219 6.69812 79.0638 6.41994 78.3504L4.03659 69.2239C3.90053 68.3009 4.07009 66.3144 5.83683 65.7526L5.87154 65.7415C8.08097 65.039 11.4734 63.9603 11.49 60.2524C11.5068 56.525 13.0407 52.5271 10.2626 51.2857C7.4846 50.0444 4.54371 49.2986 5.22633 46.8877C5.77243 44.959 7.53864 39.7418 8.35349 37.3743C8.53665 36.4829 9.53732 34.8425 12.0748 35.412C15.2465 36.1238 16.6703 37.1401 18.4408 34.4276C20.2114 31.7151 21.8813 28.6402 21.979 28.3429C22.0768 28.0456 23.3884 26.0608 21.3994 24.0904C19.4103 22.1199 19.6623 19.3481 20.549 18.3217C21.2584 17.5006 25.7107 13.6483 27.8482 11.8248C28.5178 11.459 30.3607 11.2003 32.3758 13.0914C34.8946 15.4554 35.3593 16.0471 37.0053 15.0504C38.6513 14.0536 42.2408 12.1578 43.3613 11.7571C44.4818 11.3564 45.4279 8.81243 45.1927 7.85688C44.9575 6.90134 44.5421 2.48314 47.5098 1.81049C49.884 1.27238 53.0491 0.444941 54.3348 0.0984966C55.7859 -0.193707 58.83 -0.00687413 59.3979 3.07807C59.9659 6.163 61.6038 6.83975 62.3518 6.79251C64.1117 6.67489 68.1136 6.51011 70.0425 6.79197C71.9713 7.07383 73.2127 4.61212 73.5922 3.34603C74.2362 2.16674 76.0594 -0.0819911 78.2002 0.357273C80.341 0.796539 84.1155 1.96974 85.7352 2.50144C86.7061 3.11292 88.1909 5.52536 86.3633 10.2832C89.494 11.6769 96.2727 14.9635 98.341 16.96C86.3802 9.11765 56.0539 -0.786415 30.4357 22.3358C26.0941 25.8511 17.0264 37.0594 15.4886 53.7698C15.1763 57.8394 15.4981 68.0458 19.2839 76.3151C16.0484 66.5796 14.6105 42.8758 34.7424 25.9453C37.6788 23.1398 46.9754 17.0058 60.6709 14.9142C59.6638 16.0841 55.994 24.7972 55.994 24.7972C55.994 24.7972 33.4404 31.6443 28.4814 51.0084C27.626 54.1677 26.4789 62.5817 28.7336 70.9633C26.9909 67.4635 24.5225 57.504 28.5901 45.6643C32.6577 33.8247 41.9283 26.2549 46.0551 23.9499C38.9936 26.9384 24.5461 38.7155 23.2479 61.9163C22.5872 66.823 24.0039 79.3358 34.9566 90.1336C33.5161 92.8446 32.7998 99.6361 41.4584 105.113C37.6193 102.755 29.0646 96.8948 25.5591 92.3186C21.1772 86.5983 15.462 77.9151 14.7947 76.2688C17.442 85.3721 29.1426 105.682 54.7665 114.093C58.3096 114.99 65.6508 116.58 69.002 116.407Z" fill="white"/>
<path d="M49.8112 64.0789C54.654 79.1038 87.9636 79.8046 104.013 78.2769L103.957 81.1144C91.1469 78.9618 88.6636 89.1102 89.0232 94.4535L67.89 94.0344C68.1418 85.1045 61.4719 82.6764 58.1054 82.5787C50.5743 82.8761 48.4568 90.0813 48.3394 93.6468C47.9168 93.8246 46.3848 94.0548 43.638 93.5536C40.8911 93.0524 40.4896 91.0713 40.6322 90.1434C40.7501 85.7713 40.9923 75.7615 41.0183 70.6989C41.0443 65.6363 42.6706 64.0925 43.4806 63.9534L49.8112 64.0789Z" fill="#FFC226"/>
<path fill-rule="evenodd" clip-rule="evenodd" d="M100.344 101.192C95.3823 101.093 91.4398 96.9939 91.5383 92.0355C91.6367 87.0771 95.7388 83.1373 100.7 83.2357C105.662 83.3341 109.605 87.4334 109.506 92.3918C109.408 97.3502 105.306 101.29 100.344 101.192ZM95.634 92.1162C95.5805 94.8138 97.7253 97.044 100.425 97.0975C103.124 97.151 105.356 95.0076 105.409 92.31C105.463 89.6124 103.318 87.3822 100.619 87.3287C97.9193 87.2752 95.6876 89.4186 95.634 92.1162Z" fill="white"/>
<path fill-rule="evenodd" clip-rule="evenodd" d="M58.0308 100.423C53.5576 100.334 50.0032 96.6384 50.092 92.1682C50.1807 87.6979 53.879 84.1459 58.3522 84.2346C62.8255 84.3233 66.3798 88.0191 66.291 92.4894C66.2023 96.9596 62.5041 100.512 58.0308 100.423ZM53.7835 92.2401C53.7352 94.6721 55.6689 96.6827 58.1025 96.731C60.5362 96.7792 62.5481 94.8468 62.5964 92.4148C62.6447 89.9828 60.711 87.9722 58.2774 87.9239C55.8437 87.8756 53.8318 89.8081 53.7835 92.2401Z" fill="white"/>
<path fill-rule="evenodd" clip-rule="evenodd" d="M104.176 77.1151C101.811 61.0132 94.4944 28.5999 84.1544 27.762C73.8145 26.9241 66.5952 27.1501 64.278 27.3679C61.0996 27.1808 54.4805 29.2305 53.4312 38.9265C52.3818 48.6224 51.6573 60.2514 51.4262 64.854C55.0037 69.1752 66.7639 77.6019 85.1844 76.7385L85.3599 67.9001C85.0863 66.8244 83.8393 64.7427 81.0397 65.0223L81.0674 63.6267C81.3355 63.4149 81.9346 62.6388 82.1861 61.229L68.4076 60.9559C67.9293 60.8068 67.2655 60.3096 68.4362 59.5138C69.8995 58.519 73.1026 49.6476 65.2622 45.8157C65.0176 45.6247 64.5236 45.9593 64.5039 48.8256C64.4794 52.4084 65.598 61.7378 66.3068 63.5668C66.4332 63.8929 66.521 64.1103 66.5792 64.245C66.5464 64.4251 66.4075 64.5656 66.0546 64.539C65.3851 64.4885 60.9966 64.4232 58.8861 64.3969C59.2132 58.8656 60.1278 46.4213 61.1688 40.8948C62.2099 35.3683 69.5705 34.4377 73.1207 34.6632L83.6407 34.8718C85.4108 34.8449 89.4739 36.1323 91.5653 41.4975C93.6568 46.8627 95.7191 53.5397 96.4888 56.2075C96.5364 56.9375 96.2736 58.6045 94.8415 59.4324C94.5743 59.5977 94.0926 60.097 94.3027 60.7712C94.5128 61.4455 94.6971 62.7956 94.763 63.3864L92.5639 59.2239C93.6502 58.4544 95.7508 56.7885 94.9172 55.6179C94.0836 54.4473 91.0405 55.4243 88.9838 56.5935C87.5683 57.5271 84.0619 60.5682 87.6462 60.6393C88.903 60.6642 91.106 59.9396 91.1079 59.8466L96.7371 71.8486C97.2095 72.2923 97.8601 73.4531 96.6835 74.5466C95.5069 75.6402 94.3924 76.5799 93.9822 76.913L104.176 77.1151ZM52.7416 64.2304L57.3034 64.3208C57.5667 51.0555 59.1369 43.554 59.7747 40.5069C59.9532 39.6538 60.0587 39.1499 60.042 38.9663C59.9808 38.295 57.2823 37.2363 55.9407 36.7909C54.6397 42.275 53.2658 57.3689 52.7416 64.2304ZM88.701 59.4956C91.209 59.1715 93.2436 57.4603 93.4109 56.9732C93.7753 55.9125 91.5177 55.9745 89.3307 57.426C87.1436 58.8775 88.2072 59.6646 88.701 59.4956Z" fill="white"/>
<path fill-rule="evenodd" clip-rule="evenodd" d="M106.12 82.3194C108.272 83.3858 112.391 87.3672 111.648 94.7611L114.534 94.8183L114.6 91.469C115.954 92.0698 119.252 94.0649 121.611 97.2389C133.124 97.4517 157.22 97.5261 161.494 96.1217C150.593 95.5798 127.365 94.4677 121.668 94.3548L121.695 93.0058C130.846 93.3578 149.985 93.697 153.329 92.2369L121.722 91.6102L122.503 52.3026L120.222 52.2573C120.297 53.1585 120.091 55.0935 118.665 55.6236C117.239 56.1538 116.55 55.8144 116.384 55.5784L116.843 32.459C116.758 31.2784 115.577 29.167 111.533 30.1665C107.49 31.166 103.905 34.4362 102.617 35.9463L102.579 37.9001L104.394 37.9361L104.222 46.5884L105.665 46.617C105.736 47.7508 105.966 50.2156 106.323 51.0045C106.68 51.7934 107.017 51.9955 107.142 51.998L106.12 82.3194ZM119.786 71.84L119.674 77.5152L116.08 75.5825L116.187 70.1864L119.786 71.84ZM119.443 89.0974L119.556 83.4222L115.956 81.7686L115.849 87.1646L119.443 89.0974ZM119.972 62.4899L119.86 68.1651L116.266 66.2324L116.373 60.8363L119.972 62.4899Z" fill="white"/>
<path d="M130.195 83.3114H144.143L151.653 55.0147C154.673 60.7059 161.118 72.8046 162.74 75.67C164.766 79.2519 166.674 84.6247 172.753 84.3859C177.617 84.1948 180.025 80.8836 180.621 79.2519L193.735 54.4177L201.245 83.3113C214.08 83.3511 242.254 83.4068 252.267 83.3113C264.785 83.1919 270.745 80.3265 271.937 68.387C272.891 58.8354 262.718 55.9699 257.513 55.7311H228.902C226.613 55.7311 225.802 55.2535 225.683 55.0147C222.727 50.9075 225.961 49.244 227.948 48.9256H261.804L270.745 37.1055H231.048C225.445 37.1055 209.709 37.8218 210.543 51.1941C211.211 61.8919 220.041 64.5663 224.372 64.5663H253.34C256.201 64.5663 258.824 65.0439 258.347 68.387C257.966 71.0614 254.85 71.9688 253.34 72.0882H211.855L202.914 40.568C196.906 32.7357 190.556 37.3045 188.132 40.568L172.753 68.387L157.494 40.568C151.295 32.7357 144.481 36.7725 142.831 40.568L130.195 83.3114Z" fill="white"/>
<path d="M133.37 83.7385H147.523L155.134 54.8986C159.006 62.2101 166.911 77.104 167.552 78.1871C168.193 79.2703 169.51 81.2562 170.089 82.1137C171.264 83.8468 173.605 84.6411 174.629 84.8217C179.97 85.5799 183.263 81.888 184.243 79.9473L197.595 54.2216L205.339 83.7385H218.558L215.888 72.365L206.942 40.1402C202.023 32.0105 193.954 36.2434 192.12 40.1402L176.365 68.5739L161.143 40.1402C155.064 31.3491 147.391 36.9049 145.921 41.2233L133.37 83.7385Z" fill="#FFC226"/>
</g>
<defs>
<filter id="filter0_d_2451_5690" x="0" y="0" width="276" height="128.376" filterUnits="userSpaceOnUse" color-interpolation-filters="sRGB">
<feFlood flood-opacity="0" result="BackgroundImageFix"/>
<feColorMatrix in="SourceAlpha" type="matrix" values="0 0 0 0 0 0 0 0 0 0 0 0 0 0 0 0 0 0 127 0" result="hardAlpha"/>
<feOffset dy="4"/>
<feGaussianBlur stdDeviation="2"/>
<feComposite in2="hardAlpha" operator="out"/>
<feColorMatrix type="matrix" values="0 0 0 0 0 0 0 0 0 0 0 0 0 0 0 0 0 0 0.25 0"/>
<feBlend mode="normal" in2="BackgroundImageFix" result="effect1_dropShadow_2451_5690"/>
<feBlend mode="normal" in="SourceGraphic" in2="effect1_dropShadow_2451_5690" result="shape"/>
</filter>
</defs>
</svg>
