<svg width="243" height="110" viewBox="0 0 243 110" fill="none" xmlns="http://www.w3.org/2000/svg">
<path d="M58.9383 106.278C59.2271 106.249 59.4876 106.217 59.7167 106.185C59.4959 106.232 59.2343 106.263 58.9383 106.278C55.8476 106.592 49.5156 106.646 43.6392 104.789C43.2189 106.775 41.7849 110.552 39.4112 109.773L31.8584 107.293C31.0291 106.988 29.5772 105.748 30.4042 103.232C31.4379 100.087 30.147 99.1656 29.9363 98.8973C29.7256 98.6291 25.1939 95.7477 23.3904 93.9611C22.9503 93.6839 21.3484 93.7487 18.4622 96.2257C17.8157 96.6772 16.1135 97.0674 14.4764 95.0169C12.8394 92.9663 10.6446 90.2084 9.75183 89.0857C9.40969 88.4093 9.14257 86.6359 10.8112 84.9538C12.4798 83.2717 12.4088 80.6999 12.1646 79.6242L9.38727 74.1332C9.23611 73.785 8.33549 73.1509 5.94233 73.4006C3.54917 73.6503 2.44643 72.4189 2.1942 71.7719L0.0331728 63.4968C-0.0901945 62.6599 0.0635541 60.8588 1.66548 60.3493L1.69695 60.3393C3.70028 59.7023 6.77624 58.7243 6.79133 55.3622C6.8065 51.9825 8.1973 48.3576 5.67842 47.232C3.15954 46.1065 0.492986 45.4303 1.11193 43.2443C1.60709 41.4955 3.20854 36.765 3.94737 34.6183C4.11345 33.8101 5.02078 32.3227 7.3215 32.8391C10.1974 33.4845 11.4884 34.406 13.0937 31.9465C14.6991 29.4871 16.2133 26.699 16.3019 26.4295C16.3905 26.1599 17.5798 24.3602 15.7763 22.5736C13.9728 20.787 14.2013 18.2737 15.0052 17.343C15.6484 16.5985 19.6855 13.1056 21.6236 11.4522C22.2307 11.1205 23.9016 10.8859 25.7287 12.6007C28.0126 14.7441 28.434 15.2806 29.9264 14.3769C31.4189 13.4731 34.6736 11.7542 35.6895 11.3908C36.7055 11.0275 37.5634 8.72084 37.3501 7.85443C37.1368 6.98802 36.7602 2.98197 39.451 2.37207C41.6037 1.88415 44.4736 1.1339 45.6394 0.819777C46.9551 0.554832 49.7152 0.724236 50.2302 3.5214C50.7452 6.31855 52.2303 6.93218 52.9085 6.88935C54.5042 6.7827 58.1328 6.63328 59.8818 6.88885C61.6307 7.14442 62.7562 4.91235 63.1003 3.76436C63.6843 2.69509 65.3374 0.656126 67.2785 1.05441C69.2195 1.4527 72.642 2.51646 74.1106 2.99856C74.9909 3.553 76.3372 5.7404 74.6801 10.0544C77.5188 11.3181 83.6651 14.2981 85.5405 16.1083C74.6954 8.99758 47.1981 0.0174146 23.9696 20.9826C20.033 24.1701 11.8113 34.3328 10.4169 49.4844C10.1337 53.1743 10.4255 62.4286 13.8581 69.9266C10.9245 61.0992 9.62067 39.6066 27.8746 24.2555C30.5371 21.7117 38.9665 16.1499 51.3844 14.2534C50.4712 15.3141 48.3447 18.5914 47.1438 23.2144C40.7019 23.8207 26.694 29.4228 22.1977 46.9806C21.4221 49.8452 20.382 57.4743 22.4263 65.074C20.8462 61.9007 18.6081 52.8702 22.2962 42.135C25.9844 31.3998 34.3902 24.5362 38.1321 22.4462C31.7293 25.1559 18.6295 35.8344 17.4524 56.871C16.8533 61.3199 18.1378 72.6655 28.0688 82.456C26.7627 84.9141 26.1132 91.0721 33.9641 96.0385C30.4831 93.9003 22.7265 88.5865 19.548 84.4372C15.5748 79.2505 10.3928 71.3773 9.78771 69.8845C12.1881 78.1387 22.7972 96.5537 46.0308 104.181C49.2433 104.993 55.8997 106.435 58.9383 106.278Z" fill="#1D2631"/>
<path d="M41.5378 58.8318C45.9287 72.4551 76.1311 73.0905 90.6834 71.7053L90.6323 74.2782C79.0174 72.3263 76.7658 81.5281 77.0919 86.3729L57.93 85.993C58.1584 77.896 52.1106 75.6945 49.0583 75.6058C42.2296 75.8755 40.3096 82.4086 40.2032 85.6415C39.82 85.8027 38.431 86.0114 35.9404 85.5569C33.4498 85.1025 33.0857 83.3062 33.215 82.4649C33.3219 78.5006 33.5415 69.4246 33.5651 64.8342C33.5886 60.2439 35.0633 58.8441 35.7977 58.718L41.5378 58.8318Z" fill="#FFC226"/>
<path fill-rule="evenodd" clip-rule="evenodd" d="M87.3566 92.4825C82.8578 92.3933 79.2831 88.6764 79.3723 84.1805C79.4616 79.6846 83.181 76.1124 87.6799 76.2016C92.1787 76.2907 95.7534 80.0077 95.6641 84.5035C95.5749 88.9994 91.8555 92.5717 87.3566 92.4825ZM83.086 84.2537C83.0374 86.6996 84.9822 88.7217 87.4298 88.7703C89.8773 88.8188 91.9008 86.8753 91.9494 84.4294C91.998 81.9835 90.0532 79.9613 87.6056 79.9128C85.1581 79.8643 83.1346 81.8077 83.086 84.2537Z" fill="#1D2631"/>
<path fill-rule="evenodd" clip-rule="evenodd" d="M48.9906 91.7854C44.9346 91.705 41.7119 88.354 41.7923 84.3008C41.8728 80.2475 45.226 77.0269 49.282 77.1073C53.338 77.1877 56.5607 80.5387 56.4803 84.592C56.3998 88.6453 53.0466 91.8659 48.9906 91.7854ZM45.1395 84.366C45.0957 86.5711 46.849 88.3942 49.0556 88.438C51.2622 88.4817 53.0865 86.7296 53.1303 84.5244C53.1741 82.3193 51.4208 80.4962 49.2142 80.4524C47.0075 80.4087 45.1832 82.1608 45.1395 84.366Z" fill="#1D2631"/>
<path fill-rule="evenodd" clip-rule="evenodd" d="M90.8316 70.6519C88.6865 56.0521 82.0527 26.6625 72.6773 25.9027C63.3019 25.143 56.756 25.3479 54.655 25.5454C51.7731 25.3757 45.7715 27.2342 44.82 36.0257C43.8686 44.8172 43.2116 55.3614 43.0021 59.5345C46.2459 63.4527 56.909 71.0933 73.6112 70.3105L73.7703 62.2966C73.5223 61.3212 72.3916 59.4337 69.8531 59.6872L69.8783 58.4218C70.1213 58.2297 70.6645 57.526 70.8926 56.2478L58.3994 56.0001C57.9657 55.8649 57.3639 55.4141 58.4253 54.6925C59.7522 53.7906 62.6564 45.7467 55.5474 42.2723C55.3256 42.0991 54.8777 42.4025 54.8599 45.0014C54.8376 48.2499 55.8519 56.7091 56.4945 58.3674C56.6091 58.6632 56.6888 58.8602 56.7416 58.9824C56.7118 59.1457 56.5859 59.2731 56.2659 59.249C55.6588 59.2032 51.6797 59.144 49.7661 59.1201C50.0627 54.1048 50.8919 42.8214 51.8359 37.8104C52.7798 32.7995 59.4538 31.9557 62.6728 32.1602L72.2115 32.3493C73.8165 32.3249 77.5005 33.4922 79.3969 38.3569C81.2932 43.2216 83.1631 49.2757 83.8611 51.6947C83.9042 52.3566 83.6659 53.8681 82.3674 54.6187C82.1252 54.7686 81.6883 55.2213 81.8789 55.8327C82.0694 56.4441 82.2365 57.6683 82.2962 58.2039L80.3022 54.4297C81.2872 53.7319 83.1919 52.2215 82.4361 51.1601C81.6803 50.0987 78.921 50.9845 77.0562 52.0446C75.7727 52.8912 72.5934 55.6486 75.8433 55.713C76.9829 55.7356 78.9804 55.0786 78.9821 54.9943L84.0862 65.8767C84.5145 66.279 85.1044 67.3315 84.0376 68.3231C82.9708 69.3146 81.9602 70.1666 81.5883 70.4687L90.8316 70.6519ZM44.1947 58.9691L48.331 59.0512C48.5698 47.0233 49.9935 40.2215 50.5718 37.4587C50.7337 36.6852 50.8293 36.2283 50.8141 36.0618C50.7587 35.4531 48.3119 34.4932 47.0954 34.0893C45.9158 39.0618 44.6701 52.7478 44.1947 58.9691ZM76.7997 54.6761C79.0738 54.3822 80.9185 52.8306 81.0703 52.3889C81.4007 51.4272 79.3537 51.4834 77.3707 52.7995C75.3876 54.1156 76.352 54.8293 76.7997 54.6761Z" fill="#1D2631"/>
<path fill-rule="evenodd" clip-rule="evenodd" d="M92.5943 75.3707C94.5455 76.3377 98.2795 79.9477 97.606 86.6518L100.223 86.7037L100.283 83.6668C101.511 84.2116 104.501 86.0206 106.639 88.8985C117.079 89.0914 138.927 89.1589 142.803 87.8855C132.918 87.3942 111.857 86.3858 106.691 86.2834L106.716 85.0602C115.013 85.3795 132.367 85.687 135.399 84.3631L106.741 83.7949L107.448 48.154L105.38 48.113C105.448 48.9301 105.262 50.6846 103.968 51.1653C102.675 51.646 102.051 51.3382 101.9 51.1243L102.317 30.1615C102.239 29.091 101.168 27.1767 97.5021 28.0829C93.836 28.9891 90.5851 31.9543 89.4179 33.3236L89.3827 35.0951L91.0287 35.1277L90.873 42.9729L92.1814 42.9989C92.2454 44.0269 92.4544 46.2617 92.778 46.977C93.1016 47.6923 93.4076 47.8756 93.5201 47.8778L92.5943 75.3707ZM104.985 65.8689L104.883 71.0147L101.625 69.2623L101.722 64.3696L104.985 65.8689ZM104.674 81.5164L104.776 76.3706L101.512 74.8713L101.415 79.764L104.674 81.5164ZM105.154 57.3911L105.052 62.5368L101.793 60.7844L101.89 55.8917L105.154 57.3911Z" fill="#1D2631"/>
<path d="M114.423 76.2823H127.07L133.88 50.6252C136.618 55.7855 142.462 66.7556 143.932 69.3537C145.77 72.6015 147.499 77.473 153.012 77.2565C157.422 77.0833 159.605 74.081 160.146 72.6015L172.036 50.0839L178.846 76.2822C190.483 76.3183 216.029 76.3688 225.108 76.2822C236.458 76.1739 241.863 73.5758 242.943 62.75C243.808 54.0895 234.584 51.4913 229.864 51.2748H203.923C201.847 51.2748 201.112 50.8417 201.004 50.6252C198.323 46.9012 201.256 45.3928 203.058 45.1041H233.756L241.863 34.3866H205.868C200.788 34.3866 186.52 35.0362 187.277 47.161C187.882 56.8608 195.888 59.2858 199.815 59.2858H226.081C228.675 59.2858 231.053 59.7188 230.621 62.75C230.275 65.175 227.45 65.9978 226.081 66.106H188.466L180.359 37.5261C174.911 30.4245 169.153 34.5671 166.956 37.5261L153.012 62.75L139.176 37.5261C133.555 30.4245 127.377 34.0847 125.881 37.5261L114.423 76.2823Z" fill="#1D2631"/>
<path d="M117.302 76.6695H130.135L137.036 50.5199C140.547 57.1494 147.714 70.6539 148.296 71.636C148.877 72.6182 150.071 74.4188 150.596 75.1963C151.661 76.7677 153.784 77.488 154.712 77.6517C159.555 78.3392 162.541 74.9917 163.429 73.232L175.536 49.9061L182.558 76.6695H194.544L192.123 66.357L184.011 37.1382C179.551 29.7669 172.235 33.605 170.572 37.1382L156.286 62.9195L142.484 37.1382C136.972 29.1672 130.016 34.2047 128.682 38.1204L117.302 76.6695Z" fill="#FFC226"/>
</svg>
