<svg width="44" height="42" viewBox="0 0 44 42" fill="none" xmlns="http://www.w3.org/2000/svg">
<rect x="43" y="41" width="42" height="40" transform="rotate(-180 43 41)" stroke="#FFC226" stroke-width="2"/>
<path d="M26.7556 21.6243L19.9383 28.7444C19.7806 28.9092 19.5702 29 19.3457 29C19.1213 29 18.9108 28.9092 18.7531 28.7444L18.2511 28.2202C17.9244 27.8786 17.9244 27.3234 18.2511 26.9823L23.9758 21.0033L18.2447 15.0177C18.0871 14.8529 18 14.6332 18 14.3989C18 14.1643 18.0871 13.9446 18.2447 13.7797L18.7468 13.2556C18.9046 13.0908 19.1149 13 19.3394 13C19.5638 13 19.7743 13.0908 19.932 13.2556L26.7556 20.3822C26.9137 20.5475 27.0005 20.7683 27 21.0029C27.0005 21.2385 26.9137 21.4591 26.7556 21.6243Z" fill="#484848"/>
</svg>
