<svg width="44" height="42" viewBox="0 0 44 42" fill="none" xmlns="http://www.w3.org/2000/svg">
<rect x="1" y="1" width="42" height="40" stroke="#FFC226" stroke-width="2"/>
<path d="M17.2444 21.6243L24.0617 28.7444C24.2194 28.9092 24.4298 29 24.6543 29C24.8787 29 25.0892 28.9092 25.2469 28.7444L25.7489 28.2202C26.0756 27.8786 26.0756 27.3234 25.7489 26.9823L20.0242 21.0033L25.7553 15.0177C25.9129 14.8529 26 14.6332 26 14.3989C26 14.1643 25.9129 13.9446 25.7553 13.7797L25.2532 13.2556C25.0954 13.0908 24.8851 13 24.6606 13C24.4362 13 24.2257 13.0908 24.068 13.2556L17.2444 20.3822C17.0863 20.5475 16.9995 20.7683 17 21.0029C16.9995 21.2385 17.0863 21.4591 17.2444 21.6243Z" fill="#484848"/>
</svg>
